<svg width="34" height="34" viewBox="0 0 34 34" fill="none" xmlns="http://www.w3.org/2000/svg">
<circle cx="17" cy="17" r="16.25" stroke="#E4E6EB" stroke-width="1.5"/>
<path d="M12.1248 17.7662C11.605 17.7662 11.1836 17.3448 11.1836 16.825C11.1836 16.3052 11.605 15.8838 12.1248 15.8838H22.4628C22.9826 15.8838 23.404 16.3052 23.404 16.825C23.404 17.3448 22.9826 17.7662 22.4628 17.7662H12.1248ZM16.3227 11.3871C16.3227 10.8508 16.7575 10.416 17.2938 10.416C17.8301 10.416 18.2649 10.8508 18.2649 11.3871V22.2331C18.2649 22.7694 17.8301 23.2041 17.2938 23.2041C16.7575 23.2041 16.3227 22.7694 16.3227 22.2331V11.3871Z" fill="#2C2E3B"/>
</svg>
