<svg width="11" height="11" viewBox="0 0 11 11" fill="none" xmlns="http://www.w3.org/2000/svg">
<path d="M9.04167 0.000105398C9.25608 0.000167889 9.46784 0.0475086 9.66187 0.138756C9.85589 0.230003 10.0274 0.362912 10.1642 0.528016C10.301 0.69312 10.3997 0.886358 10.4533 1.09396C10.5069 1.30157 10.514 1.51844 10.4742 1.72913C10.4344 1.93981 10.3487 2.13913 10.223 2.31289C10.0974 2.48664 9.93502 2.63056 9.74743 2.73438C9.55983 2.83821 9.35165 2.8994 9.13771 2.91358C8.92376 2.92776 8.70933 2.89459 8.50967 2.81644L5.852 5.47352C6.2889 6.1064 6.48278 6.87567 6.398 7.64002L7.92867 8.0991C8.1453 7.84355 8.44333 7.67037 8.77263 7.6087C9.10193 7.54703 9.44243 7.60062 9.73686 7.76046C10.0313 7.9203 10.2617 8.17665 10.3894 8.4864C10.5171 8.79614 10.5342 9.14041 10.4379 9.46129C10.3416 9.78218 10.1377 10.0601 9.8606 10.2484C9.58348 10.4367 9.24998 10.5238 8.91619 10.4951C8.58239 10.4664 8.26866 10.3236 8.02773 10.0908C7.7868 9.85804 7.63338 9.54939 7.59325 9.21677L6.06317 8.7571C5.73972 9.38806 5.21637 9.89409 4.5749 10.1961C3.93343 10.4982 3.20997 10.5793 2.51757 10.4266C1.82516 10.274 1.2028 9.89636 0.747748 9.35262C0.292692 8.80889 0.0305688 8.12974 0.0023333 7.42127L0 7.29177L0.0023333 7.16286C0.0250686 6.59504 0.198209 6.04346 0.504046 5.56451C0.809884 5.08556 1.23744 4.69644 1.743 4.43694L1.28333 2.90627C0.947057 2.8659 0.635347 2.70964 0.401783 2.46437C0.168218 2.21909 0.0273885 1.90012 0.00350002 1.56227L0 1.45844L0.00291673 1.36277C0.0186997 1.12243 0.0937655 0.88974 0.221409 0.685485C0.349053 0.48123 0.525301 0.311771 0.734409 0.192243C0.943517 0.0727154 1.17897 0.00684131 1.41975 0.000504829C1.66053 -0.00583165 1.89912 0.0475667 2.11423 0.15593C2.32933 0.264294 2.51425 0.424249 2.65246 0.621508C2.79067 0.818766 2.87787 1.04719 2.90627 1.28636C2.93468 1.52554 2.9034 1.76803 2.81523 1.99217C2.72706 2.21631 2.58474 2.41513 2.401 2.57086L2.86008 4.10211C3.62443 4.01733 4.39371 4.2112 5.02658 4.64811L7.68367 1.99044C7.62884 1.8509 7.59598 1.70371 7.58625 1.55411L7.58333 1.45844L7.58625 1.36277C7.61054 0.993317 7.77445 0.646933 8.04472 0.393879C8.315 0.140824 8.67141 4.83798e-05 9.04167 0.000105398Z" fill="#FFAE02"/>
</svg>
