<svg width="10" height="12" viewBox="0 0 10 12" fill="none" xmlns="http://www.w3.org/2000/svg">
<path d="M9.71355 0.578833C9.72082 0.804279 9.55051 0.935183 9.40408 1.08063C7.98652 2.50083 6.57623 3.92831 5.14414 5.33397C4.87516 5.59785 4.85024 5.72876 5.13479 6.00719C6.54716 7.38376 7.93252 8.78734 9.32723 10.1826C9.43731 10.2927 9.56193 10.3966 9.63774 10.5286C9.7686 10.7571 9.7634 10.9982 9.56193 11.1935C9.36358 11.3867 9.12992 11.4044 8.90041 11.2527C8.78617 11.1779 8.68855 11.0761 8.59093 10.9784C7.00098 9.38783 5.41207 7.79725 3.82316 6.20458C3.42645 5.80668 3.4171 5.54487 3.8107 5.14904C5.43492 3.51898 7.06537 1.89514 8.69167 0.266119C8.90248 0.055218 9.12992 -0.0839972 9.429 0.0572958C9.63567 0.154954 9.72913 0.334687 9.71355 0.578833Z" fill="#7F56D9"/>
<path d="M5.66265 0.0072286C5.89632 -0.00316059 6.06975 0.104887 6.15594 0.31371C6.25772 0.560973 6.19437 0.780185 5.99809 0.972385C5.52869 1.43159 5.06759 1.90014 4.60338 2.36558C3.61368 3.3567 2.63541 4.35926 1.62806 5.33377C1.3539 5.59869 1.33624 5.73375 1.62079 6.01114C3.01966 7.37628 4.39256 8.76636 5.77481 10.1492C5.88489 10.2593 6.00432 10.3642 6.09156 10.4899C6.25876 10.7299 6.25772 10.9834 6.04275 11.1943C5.82674 11.4063 5.57853 11.4042 5.34072 11.2234C5.23167 11.1403 5.13509 11.0385 5.03747 10.9408C3.46102 9.36166 1.88561 7.7825 0.310201 6.20231C-0.0948153 5.79609 -0.107277 5.55714 0.296701 5.15092C1.91988 3.52085 3.5493 1.89702 5.17767 0.273192C5.31268 0.138132 5.44561 -0.00523843 5.66265 0.0072286Z" fill="#7F56D9"/>
</svg>
