<svg width="10" height="12" viewBox="0 0 10 12" fill="none" xmlns="http://www.w3.org/2000/svg">
<path d="M0.0130076 0.578833C0.00573826 0.804279 0.176053 0.935183 0.322482 1.08063C1.74004 2.50083 3.15033 3.92831 4.58243 5.33397C4.8514 5.59785 4.87632 5.72876 4.59177 6.00719C3.17941 7.38376 1.79404 8.78734 0.399332 10.1826C0.28925 10.2927 0.164629 10.3966 0.0888181 10.5286C-0.0420337 10.7571 -0.0368404 10.9982 0.164629 11.1935C0.362984 11.3867 0.596647 11.4044 0.826157 11.2527C0.940392 11.1779 1.03801 11.0761 1.13563 10.9784C2.72558 9.38783 4.31449 7.79725 5.9034 6.20458C6.30011 5.80668 6.30946 5.54487 5.91587 5.14904C4.29165 3.51898 2.66119 1.89514 1.0349 0.266119C0.824079 0.055218 0.596647 -0.0839972 0.297558 0.0572958C0.0908952 0.154954 -0.00256968 0.334687 0.0130076 0.578833Z" fill="#596680"/>
<path d="M4.06391 0.0072286C3.83025 -0.00316059 3.65682 0.104887 3.57062 0.31371C3.46885 0.560973 3.5322 0.780185 3.72847 0.972385C4.19788 1.43159 4.65897 1.90014 5.12318 2.36558C6.11288 3.3567 7.09115 4.35926 8.0985 5.33377C8.37266 5.59869 8.39032 5.73375 8.10577 6.01114C6.7069 7.37628 5.334 8.76636 3.95175 10.1492C3.84167 10.2593 3.72224 10.3642 3.63501 10.4899C3.46781 10.7299 3.46885 10.9834 3.68382 11.1943C3.89983 11.4063 4.14803 11.4042 4.38585 11.2234C4.49489 11.1403 4.59147 11.0385 4.68909 10.9408C6.26554 9.36166 7.84095 7.7825 9.41636 6.20231C9.82138 5.79609 9.83384 5.55714 9.42986 5.15092C7.80668 3.52085 6.17727 1.89702 4.54889 0.273192C4.41389 0.138132 4.28096 -0.00523843 4.06391 0.0072286Z" fill="#596680"/>
</svg>
