<svg width="22" height="21" viewBox="0 0 22 21" fill="none" xmlns="http://www.w3.org/2000/svg">
<path d="M8.02154 17.9491C6.45514 17.951 4.88874 17.9644 3.32042 17.9491C1.49871 17.9318 0.48708 16.2176 1.33171 14.5955C1.46416 14.3421 1.62541 14.0983 1.81161 13.8833C3.4164 12.0367 4.17849 9.92893 3.99804 7.45263C3.86175 5.60213 4.44531 3.94743 5.63739 2.49044C8.02346 -0.425443 12.5211 -0.865033 15.3832 1.61894C17.155 3.15655 18.0803 5.13374 17.9632 7.45263C17.8365 9.96924 18.5986 12.0827 20.2226 13.9582C20.906 14.7471 21.2419 15.6666 20.7313 16.6898C20.2264 17.6995 19.3703 18.0124 18.2703 17.9682C16.8345 17.9087 15.3928 17.951 13.9551 17.9491C13.7631 18.1333 13.5231 18.2178 13.2659 18.2274C11.7494 18.2754 10.231 18.2754 8.71452 18.2274C8.45346 18.2178 8.21542 18.1333 8.02154 17.9491Z" fill="#54698F"/>
<path d="M8.02197 17.949C9.99917 17.949 11.9764 17.949 13.9536 17.949C13.8921 19.7151 12.6041 21.0146 10.9398 20.9859C9.31003 20.9571 8.07188 19.6671 8.02197 17.949Z" fill="#4B5A78"/>
<path d="M2.82534 3.17585C2.22642 4.40824 2.07477 5.79804 1.9308 7.19551C1.88089 7.68501 1.49505 7.97103 0.978675 7.96336C0.41431 7.95568 0.0323076 7.60823 0.00927228 7.08993C-0.0617532 5.4717 0.276098 3.91874 0.994031 2.4656C1.22246 2.00489 1.68125 1.89931 2.15156 2.06056C2.63338 2.22565 2.83302 2.60765 2.82534 3.17585Z" fill="#4B5A78"/>
<path d="M21.9982 6.59258C22.0193 7.30475 21.8408 7.91711 21.0115 7.95358C20.2303 7.98813 19.9711 7.41417 19.9615 6.74615C19.9462 5.61166 19.6947 4.53284 19.2781 3.48857C19.019 2.84166 19.161 2.32145 19.8041 2.07382C20.4587 1.82235 20.8868 2.16404 21.1478 2.786C21.6604 4.00687 21.8984 5.28341 21.9982 6.59258Z" fill="#4B5A78"/>
</svg>
