<svg width="19" height="19" viewBox="0 0 19 19" fill="none" xmlns="http://www.w3.org/2000/svg">
<path d="M14.9285 7.80357C14.9285 6.36383 14.3566 4.98305 13.3385 3.96499C12.3205 2.94694 10.9397 2.375 9.49993 2.375C8.06018 2.375 6.6794 2.94694 5.66135 3.96499C4.6433 4.98305 4.07136 6.36383 4.07136 7.80357V12.5536C4.07136 13.0935 3.85688 13.6113 3.47511 13.993C3.09334 14.3748 2.57555 14.5893 2.03564 14.5893H16.9642C16.4243 14.5893 15.9065 14.3748 15.5247 13.993C15.143 13.6113 14.9285 13.0935 14.9285 12.5536V7.80357Z" stroke="#364155" stroke-linecap="round" stroke-linejoin="round"/>
<path d="M14.9285 7.80357C14.9285 6.36383 14.3566 4.98305 13.3385 3.96499C12.3205 2.94694 10.9397 2.375 9.49993 2.375C8.06018 2.375 6.6794 2.94694 5.66135 3.96499C4.6433 4.98305 4.07136 6.36383 4.07136 7.80357V12.5536C4.07136 13.0935 3.85688 13.6113 3.47511 13.993C3.09334 14.3748 2.57555 14.5893 2.03564 14.5893H16.9642C16.4243 14.5893 15.9065 14.3748 15.5247 13.993C15.143 13.6113 14.9285 13.0935 14.9285 12.5536V7.80357Z" fill="#364155"/>
<path d="M8.14307 17.9822H10.8574" stroke="#4B5A78" stroke-width="1.5" stroke-linecap="round" stroke-linejoin="round"/>
<path d="M1.01807 7.3729C1.01877 6.13078 1.31499 4.90665 1.88225 3.80163C2.44951 2.6966 3.27154 1.74239 4.28043 1.01782" stroke="#4B5A78" stroke-width="1.5" stroke-linecap="round" stroke-linejoin="round"/>
<path d="M17.9821 7.3729C17.9814 6.13078 17.6852 4.90665 17.1179 3.80163C16.5506 2.6966 15.7286 1.74239 14.7197 1.01782" stroke="#4B5A78" stroke-width="1.5" stroke-linecap="round" stroke-linejoin="round"/>
</svg>
