<svg width="14" height="14" viewBox="0 0 14 14" fill="none" xmlns="http://www.w3.org/2000/svg">
<path d="M5.10457 11.9738C4.10777 11.9751 3.11097 11.9841 2.11295 11.9738C0.953682 11.9623 0.309916 10.8187 0.847406 9.73666C0.931694 9.56763 1.03431 9.40499 1.1528 9.26157C2.17403 8.02966 2.65899 6.62359 2.54417 4.97165C2.45743 3.73718 2.82879 2.63333 3.58739 1.66138C5.1058 -0.283813 7.96793 -0.577064 9.78929 1.08C10.9168 2.10573 11.5056 3.42472 11.4311 4.97165C11.3505 6.65048 11.8354 8.06039 12.8689 9.31151C13.3037 9.83783 13.5175 10.4512 13.1926 11.1338C12.8713 11.8073 12.3265 12.0161 11.6265 11.9866C10.7128 11.9469 9.7954 11.9751 8.88044 11.9738C8.75829 12.0968 8.60559 12.1531 8.4419 12.1595C7.47686 12.1915 6.5106 12.1915 5.54556 12.1595C5.37943 12.1531 5.22795 12.0968 5.10457 11.9738Z" fill="#24BB16"/>
<path d="M5.10498 11.9738C6.3632 11.9738 7.62141 11.9738 8.87963 11.9738C8.84054 13.1519 8.02086 14.0189 6.96176 13.9997C5.92465 13.9805 5.13674 13.1199 5.10498 11.9738Z" fill="#24BB16"/>
<path d="M1.79794 2.11864C1.41681 2.94077 1.32031 3.86791 1.22869 4.80016C1.19693 5.12671 0.951395 5.31751 0.622793 5.31239C0.263652 5.30727 0.0205594 5.07549 0.00590054 4.72973C-0.0392975 3.65021 0.175699 2.61423 0.632565 1.64483C0.777932 1.3375 1.06989 1.26706 1.36917 1.37463C1.67579 1.48476 1.80283 1.7396 1.79794 2.11864Z" fill="#24BB16"/>
<path d="M13.9988 4.39786C14.0122 4.87296 13.8986 5.28146 13.3709 5.30579C12.8737 5.32884 12.7088 4.94595 12.7027 4.50031C12.6929 3.74349 12.5329 3.02381 12.2678 2.32718C12.1029 1.89563 12.1933 1.54859 12.6025 1.3834C13.0191 1.21564 13.2915 1.44358 13.4576 1.85849C13.7838 2.67293 13.9353 3.52451 13.9988 4.39786Z" fill="#24BB16"/>
</svg>
