<svg width="17" height="19" viewBox="0 0 17 19" fill="none" xmlns="http://www.w3.org/2000/svg">
<path d="M0 6.49998C0 4.93626 0 4.1544 0.413293 3.61579C0.519694 3.47713 0.643813 3.35301 0.782477 3.24661C1.32109 2.83331 2.10295 2.83331 3.66667 2.83331H12.8333C14.397 2.83331 15.1789 2.83331 15.7175 3.24661C15.8562 3.35301 15.9803 3.47713 16.0867 3.61579C16.5 4.1544 16.5 4.93626 16.5 6.49998C16.5 6.89091 16.5 7.08637 16.3967 7.22103C16.3701 7.25569 16.339 7.28672 16.3044 7.31332C16.1697 7.41665 15.9743 7.41665 15.5833 7.41665H0.916668C0.525738 7.41665 0.330273 7.41665 0.195619 7.31332C0.160953 7.28672 0.129924 7.25569 0.103323 7.22103C0 7.08637 0 6.89091 0 6.49998Z" fill="#364155"/>
<path d="M0 14.4167C0 16.3023 0 17.2451 0.585786 17.8309C1.17157 18.4167 2.11438 18.4167 4 18.4167H12.5C14.3856 18.4167 15.3284 18.4167 15.9142 17.8309C16.5 17.2451 16.5 16.3023 16.5 14.4167V10.25C16.5 9.7786 16.5 9.54289 16.3536 9.39645C16.2071 9.25 15.9714 9.25 15.5 9.25H1C0.528596 9.25 0.292893 9.25 0.146447 9.39645C0 9.54289 0 9.7786 0 10.25V14.4167Z" fill="#364155"/>
<rect x="4.125" y="11.0833" width="3.3" height="1.83333" rx="0.5" fill="#4B5A78"/>
<rect x="4.125" y="14.75" width="3.3" height="1.83333" rx="0.5" fill="#4B5A78"/>
<rect x="9.0752" y="11.0833" width="3.3" height="1.83333" rx="0.5" fill="#4B5A78"/>
<rect x="9.0752" y="14.75" width="3.3" height="1.83333" rx="0.5" fill="#4B5A78"/>
<path d="M4.125 1L4.125 3.75" stroke="#4B5A78" stroke-width="2" stroke-linecap="round"/>
<path d="M12.375 1L12.375 3.75" stroke="#4B5A78" stroke-width="2" stroke-linecap="round"/>
</svg>
