<svg width="16" height="16" viewBox="0 0 16 16" fill="none" xmlns="http://www.w3.org/2000/svg">
<path d="M5.64969 8.82716C5.64969 8.62673 5.48712 8.46436 5.28653 8.46436H4.01922C3.81885 8.46436 3.65625 8.62673 3.65625 8.82716V10.0943C3.65625 10.295 3.81885 10.4574 4.01922 10.4574H5.28653C5.48712 10.4574 5.64969 10.295 5.64969 10.0943V8.82716Z" fill="#596680"/>
<path d="M8.82041 8.82692C8.82041 8.62649 8.65781 8.46411 8.4576 8.46411H7.19012C6.98975 8.46411 6.82715 8.62649 6.82715 8.82692V10.0941C6.82715 10.2948 6.98975 10.4572 7.19012 10.4572H8.4576C8.65781 10.4572 8.82041 10.2948 8.82041 10.0941V8.82692Z" fill="#596680"/>
<path d="M11.9856 8.82716C11.9856 8.62673 11.823 8.46436 11.6227 8.46436H10.3554C10.1548 8.46436 9.99219 8.62673 9.99219 8.82716V10.0943C9.99219 10.295 10.1548 10.4574 10.3554 10.4574H11.6227C11.823 10.4574 11.9856 10.295 11.9856 10.0943V8.82716Z" fill="#596680"/>
<path d="M5.64969 11.9948C5.64969 11.7941 5.48712 11.6318 5.28653 11.6318H4.01922C3.81885 11.6318 3.65625 11.7941 3.65625 11.9948V13.2618C3.65625 13.4623 3.81885 13.6247 4.01922 13.6247H5.28653C5.48712 13.6247 5.64969 13.4623 5.64969 13.2618V11.9948Z" fill="#596680"/>
<path d="M8.82041 11.9946C8.82041 11.7938 8.65781 11.6316 8.4576 11.6316H7.19012C6.98975 11.6316 6.82715 11.7938 6.82715 11.9946V13.2615C6.82715 13.4621 6.98975 13.6245 7.19012 13.6245H8.4576C8.65781 13.6245 8.82041 13.462 8.82041 13.2615V11.9946Z" fill="#596680"/>
<path d="M11.9856 11.9948C11.9856 11.7941 11.823 11.6318 11.6228 11.6318H10.3554C10.1548 11.6318 9.99219 11.7941 9.99219 11.9948V13.2618C9.99219 13.4623 10.1548 13.6247 10.3554 13.6247H11.6228C11.823 13.6247 11.9856 13.4623 11.9856 13.2618V11.9948Z" fill="#596680"/>
<path d="M14.2527 1.78148V3.71695C14.2527 4.59176 13.543 5.29672 12.6683 5.29672H11.6689C10.7941 5.29672 10.0751 4.59176 10.0751 3.71695V1.77454H5.57023V3.71695C5.57023 4.59176 4.85118 5.29672 3.97656 5.29672H2.97691C2.10226 5.29672 1.39262 4.59176 1.39262 3.71695V1.78148C0.628165 1.80453 0 2.43708 0 3.21458V14.5573C0 15.3494 0.64203 16 1.43414 16H14.2111C15.0021 16 15.6453 15.3481 15.6453 14.5573V3.21458C15.6453 2.43708 15.0172 1.80453 14.2527 1.78148ZM13.7885 13.851C13.7885 14.1933 13.5109 14.471 13.1685 14.471H2.4495C2.10705 14.471 1.8295 14.1933 1.8295 13.851V7.99204C1.8295 7.64959 2.10702 7.37187 2.4495 7.37187H13.1685C13.5109 7.37187 13.7885 7.64959 13.7885 7.99204L13.7885 13.851Z" fill="#596680"/>
<path d="M2.97306 4.25917H3.96167C4.26174 4.25917 4.50504 4.01622 4.50504 3.71615V0.543208C4.50504 0.243105 4.26174 0 3.96167 0H2.97306C2.67296 0 2.42969 0.243105 2.42969 0.543208V3.71615C2.42969 4.01622 2.67296 4.25917 2.97306 4.25917Z" fill="#596680"/>
<path d="M11.6561 4.25917H12.6447C12.9446 4.25917 13.1879 4.01622 13.1879 3.71615V0.543208C13.1879 0.243105 12.9446 0 12.6447 0H11.6561C11.3561 0 11.1128 0.243105 11.1128 0.543208V3.71615C11.1128 4.01622 11.3561 4.25917 11.6561 4.25917Z" fill="#596680"/>
</svg>
