<svg width="14" height="12" viewBox="0 0 14 12" fill="none" xmlns="http://www.w3.org/2000/svg">
<path d="M6.93314 9.06671C8.11134 9.06671 9.06647 8.11159 9.06647 6.93338C9.06647 5.75517 8.11134 4.80005 6.93314 4.80005C5.75493 4.80005 4.7998 5.75517 4.7998 6.93338C4.7998 8.11159 5.75493 9.06671 6.93314 9.06671Z" fill="white"/>
<path d="M11.2 2.13333H10.016L9.78667 1.21067C9.69989 0.864771 9.50005 0.55778 9.21886 0.338438C8.93768 0.119097 8.59128 -2.04225e-05 8.23467 2.62628e-09H5.632C5.27539 -2.04225e-05 4.92899 0.119097 4.6478 0.338438C4.36662 0.55778 4.16678 0.864771 4.08 1.21067L3.85067 2.13333H2.66667C1.95942 2.13333 1.28115 2.41428 0.781049 2.91438C0.280952 3.41448 0 4.09276 0 4.8V9.06667C0 9.77391 0.280952 10.4522 0.781049 10.9523C1.28115 11.4524 1.95942 11.7333 2.66667 11.7333H11.2C11.9072 11.7333 12.5855 11.4524 13.0856 10.9523C13.5857 10.4522 13.8667 9.77391 13.8667 9.06667V4.8C13.8667 4.09276 13.5857 3.41448 13.0856 2.91438C12.5855 2.41428 11.9072 2.13333 11.2 2.13333ZM6.93333 10.1333C6.30043 10.1333 5.68175 9.94566 5.15551 9.59404C4.62927 9.24242 4.21912 8.74264 3.97692 8.15792C3.73472 7.5732 3.67135 6.92978 3.79482 6.30904C3.91829 5.68831 4.22306 5.11812 4.67059 4.67059C5.11812 4.22306 5.68831 3.91829 6.30904 3.79482C6.92978 3.67135 7.5732 3.73472 8.15792 3.97692C8.74264 4.21912 9.24242 4.62927 9.59404 5.15551C9.94566 5.68175 10.1333 6.30043 10.1333 6.93333C10.1333 7.78203 9.79619 8.59596 9.19608 9.19608C8.59596 9.79619 7.78203 10.1333 6.93333 10.1333Z" fill="white"/>
</svg>
