<svg width="12" height="12" viewBox="0 0 12 12" fill="none" xmlns="http://www.w3.org/2000/svg">
<path d="M5.83333 0C2.6075 0 0 2.6075 0 5.83333C0 9.05917 2.6075 11.6667 5.83333 11.6667C9.05917 11.6667 11.6667 9.05917 11.6667 5.83333C11.6667 2.6075 9.05917 0 5.83333 0ZM8.34167 8.34167C8.2877 8.39574 8.2236 8.43865 8.15303 8.46792C8.08246 8.49719 8.00682 8.51226 7.93042 8.51226C7.85402 8.51226 7.77837 8.49719 7.7078 8.46792C7.63724 8.43865 7.57313 8.39574 7.51917 8.34167L5.83333 6.65583L4.1475 8.34167C4.03843 8.45074 3.8905 8.51201 3.73625 8.51201C3.582 8.51201 3.43407 8.45074 3.325 8.34167C3.21593 8.2326 3.15465 8.08467 3.15465 7.93042C3.15465 7.85404 3.1697 7.77841 3.19893 7.70785C3.22815 7.63729 3.27099 7.57317 3.325 7.51917L5.01083 5.83333L3.325 4.1475C3.21593 4.03843 3.15465 3.8905 3.15465 3.73625C3.15465 3.582 3.21593 3.43407 3.325 3.325C3.43407 3.21593 3.582 3.15465 3.73625 3.15465C3.8905 3.15465 4.03843 3.21593 4.1475 3.325L5.83333 5.01083L7.51917 3.325C7.57317 3.27099 7.63729 3.22815 7.70785 3.19893C7.77841 3.1697 7.85404 3.15465 7.93042 3.15465C8.00679 3.15465 8.08242 3.1697 8.15298 3.19893C8.22355 3.22815 8.28766 3.27099 8.34167 3.325C8.39567 3.37901 8.43851 3.44312 8.46774 3.51368C8.49697 3.58425 8.51201 3.65987 8.51201 3.73625C8.51201 3.81263 8.49697 3.88825 8.46774 3.95882C8.43851 4.02938 8.39567 4.09349 8.34167 4.1475L6.65583 5.83333L8.34167 7.51917C8.56333 7.74083 8.56333 8.11417 8.34167 8.34167Z" fill="#FF4E4E"/>
</svg>
