<svg width="19" height="18" viewBox="0 0 19 18" fill="none" xmlns="http://www.w3.org/2000/svg">
<path fill-rule="evenodd" clip-rule="evenodd" d="M0 4V17.25L2.875 16.2917L5.75 17.25L8.625 16.2917L11.4053 17.2184L11.5 7.66685V4.3125C11.5 2.09879 13.168 0.274642 15.3157 0.0283034C14.8293 7.92604e-10 14.2227 0 13.4167 0H4C2.11438 0 1.17157 0 0.585786 0.585787C0 1.17157 0 2.11438 0 4ZM18.125 7.66666V4.3125C18.125 3.03534 17.0897 2 15.8125 2C14.5353 2 13.5 3.03534 13.5 4.3125V7.66666L18.125 7.66666Z" fill="#364155"/>
<path d="M2.875 3.83337L8.625 3.83337M4.79167 7.66671H2.875M2.875 11.5H6.70833" stroke="#4B5A78" stroke-width="2" stroke-linecap="round"/>
</svg>
