<svg width="53" height="40" viewBox="0 0 53 40" fill="none" xmlns="http://www.w3.org/2000/svg">
<path d="M28.125 39.375V28.125H35.625L26.25 16.875L16.875 28.125H24.375V39.375H15V39.2812C14.685 39.3 14.385 39.375 14.0625 39.375C10.3329 39.375 6.75604 37.8934 4.11881 35.2562C1.48158 32.619 0 29.0421 0 25.3125C0 18.0975 5.45625 12.2175 12.4575 11.4113C13.0713 8.20235 14.7842 5.30764 17.3014 3.225C19.8186 1.14236 22.9829 0.00198005 26.25 0C29.5175 0.00182874 32.6823 1.14207 35.2002 3.22466C37.7181 5.30725 39.4316 8.20204 40.0463 11.4113C47.0475 12.2175 52.4963 18.0975 52.4963 25.3125C52.4963 29.0421 51.0147 32.619 48.3774 35.2562C45.7402 37.8934 42.1634 39.375 38.4338 39.375C38.1188 39.375 37.815 39.3 37.4963 39.2812V39.375H28.125Z" fill="#596680"/>
</svg>
