<svg width="14" height="14" viewBox="0 0 14 14" fill="none" xmlns="http://www.w3.org/2000/svg">
<path fill-rule="evenodd" clip-rule="evenodd" d="M0 5.58289V7.28567C0 8.25418 1.55042 9.06764 3.62744 9.24829V6.71436C3.62744 6.67392 3.62855 6.63392 3.63072 6.59437C2.47632 6.51198 1.42777 6.26704 0.604738 5.89984C0.391307 5.80462 0.188286 5.69905 0 5.58289ZM9 2V3.47054C7.76424 3.51118 6.60352 3.75088 5.68779 4.15788C5.18514 4.38127 4.70099 4.67966 4.32558 5.07413C4.23995 5.16411 4.1576 5.26192 4.08136 5.36723C2.89459 5.32257 1.85826 5.09034 1.11404 4.7583C0.698028 4.5727 0.400575 4.36809 0.215522 4.17283C0.0869876 4.0372 0.0252091 3.92085 0 3.82491V2C0 0.89543 2.01472 0 4.5 0C6.98528 0 9 0.89543 9 2ZM4.49987 2.9313C6.23526 2.9313 7.64207 2.52673 7.64207 2.02766C7.64207 1.5286 6.23526 1.12402 4.49987 1.12402C2.76448 1.12402 1.35767 1.5286 1.35767 2.02766C1.35767 2.52673 2.76448 2.9313 4.49987 2.9313ZM4.87744 12V10.2972C5.06573 10.4134 5.26875 10.519 5.48218 10.6142C6.50764 11.0717 7.88317 11.3394 9.37735 11.3394C10.8715 11.3394 12.2471 11.0717 13.2725 10.6142C13.486 10.5189 13.6891 10.4133 13.8774 10.2971V12C13.8774 13.1 11.8774 14 9.37744 14C6.87744 14 4.87744 13.1 4.87744 12ZM5.09296 8.88718C4.96443 8.75156 4.90265 8.6352 4.87744 8.53926V6.71436C4.87744 5.60979 6.89216 4.71436 9.37744 4.71436C11.8627 4.71436 13.8774 5.60979 13.8774 6.71436V8.53857C13.8523 8.63465 13.7906 8.75123 13.6617 8.88718C13.4767 9.08245 13.1792 9.28705 12.7632 9.47266C11.9327 9.84319 10.7385 10.0894 9.37735 10.0894C8.01622 10.0894 6.82198 9.84319 5.99148 9.47266C5.57547 9.28705 5.27802 9.08245 5.09296 8.88718ZM12.5195 6.74202C12.5195 7.24108 11.1127 7.64565 9.37731 7.64565C7.64192 7.64565 6.23511 7.24108 6.23511 6.74202C6.23511 6.24295 7.64192 5.83838 9.37731 5.83838C11.1127 5.83838 12.5195 6.24295 12.5195 6.74202Z" fill="#7F56D9"/>
</svg>
