<svg width="11" height="14" viewBox="0 0 11 14" fill="none" xmlns="http://www.w3.org/2000/svg">
<path d="M7 10.6667C7.27778 10.6667 7.514 10.5693 7.70867 10.3747C7.90333 10.18 8.00044 9.944 8 9.66667C8 9.38889 7.90267 9.15267 7.708 8.958C7.51333 8.76333 7.27733 8.66622 7 8.66667C6.72222 8.66667 6.486 8.764 6.29133 8.95867C6.09667 9.15333 5.99956 9.38933 6 9.66667C6 9.94444 6.09733 10.1807 6.292 10.3753C6.48667 10.57 6.72267 10.6671 7 10.6667ZM3.63333 10.6333L7.96667 6.3L7.03333 5.36667L2.7 9.7L3.63333 10.6333ZM3.66667 7.33333C3.94444 7.33333 4.18067 7.236 4.37533 7.04133C4.57 6.84667 4.66711 6.61067 4.66667 6.33333C4.66667 6.05556 4.56933 5.81933 4.37467 5.62467C4.18 5.43 3.944 5.33289 3.66667 5.33333C3.38889 5.33333 3.15267 5.43067 2.958 5.62533C2.76333 5.82 2.66622 6.056 2.66667 6.33333C2.66667 6.61111 2.764 6.84733 2.95867 7.042C3.15333 7.23667 3.38933 7.33378 3.66667 7.33333ZM5.33333 13.3333C3.81111 13.3333 2.54156 12.8111 1.52467 11.7667C0.507778 10.7222 -0.000444153 9.42222 2.91248e-07 7.86667C2.91248e-07 6.75556 0.441778 5.54711 1.32533 4.24133C2.20889 2.93556 3.54489 1.52178 5.33333 0C7.12222 1.52222 8.45844 2.93622 9.342 4.242C10.2256 5.54778 10.6671 6.756 10.6667 7.86667C10.6667 9.42222 10.1582 10.7222 9.14133 11.7667C8.12444 12.8111 6.85511 13.3333 5.33333 13.3333Z" fill="#0084FF"/>
</svg>
