<svg width="18" height="19" viewBox="0 0 18 19" fill="none" xmlns="http://www.w3.org/2000/svg">
<path d="M8.04924 5.18189C8.04924 6.21741 8.06811 7.25293 8.04409 8.28846C8.01834 9.44853 7.34559 10.1887 6.23521 10.2189C4.77987 10.2581 3.32281 10.2563 1.86918 10.2207C0.791408 10.194 0.0671694 9.51436 0.0397102 8.39521C-0.0152084 6.20674 -0.0117759 4.01648 0.0414264 1.82801C0.0671695 0.772913 0.705597 0.102136 1.72502 0.0558753C3.26274 -0.0152946 4.80733 -0.0206323 6.34504 0.0523169C7.452 0.105694 8.02178 0.824511 8.04409 1.98636C8.0664 3.05035 8.05095 4.11612 8.04924 5.18189Z" fill="#364155"/>
<path d="M9.87275 13.4357C9.87275 12.4002 9.8573 11.3646 9.8779 10.3291C9.90021 9.1637 10.5455 8.40752 11.6559 8.36838C13.1387 8.315 14.6249 8.31678 16.106 8.37016C17.1769 8.4093 17.8634 9.11744 17.8891 10.249C17.9389 12.3788 17.9406 14.5103 17.8943 16.6383C17.8668 17.8535 17.1598 18.5261 15.9704 18.5563C14.5734 18.5902 13.173 18.5919 11.776 18.5563C10.5404 18.5261 9.89677 17.8215 9.87618 16.544C9.85902 15.5067 9.87275 14.4712 9.87275 13.4357Z" fill="#4B5A78"/>
<path d="M4.01362 12.0603C4.72928 12.0585 5.44493 12.0407 6.15888 12.0638C7.32933 12.103 8.01581 12.8111 8.0467 14.0121C8.06901 14.9017 8.07073 15.7914 8.04327 16.681C8.01066 17.7663 7.39111 18.4958 6.34766 18.5349C4.80651 18.5937 3.25849 18.5901 1.71734 18.5314C0.754548 18.494 0.121268 17.8357 0.05262 16.8304C-0.0160282 15.8287 -0.0177444 14.8128 0.05262 13.811C0.128133 12.731 0.814615 12.1119 1.87008 12.0674C2.58231 12.0371 3.29796 12.0621 4.01362 12.0603Z" fill="#4B5A78"/>
<path d="M13.9005 6.52325C13.1849 6.52325 12.4709 6.5446 11.7553 6.51792C10.5797 6.47521 9.90348 5.77063 9.87602 4.56074C9.85542 3.67112 9.85371 2.7815 9.87945 1.89365C9.91034 0.831443 10.4698 0.119745 11.4978 0.0663673C13.0647 -0.0154781 14.6419 -0.0119196 16.2105 0.057471C17.2265 0.103731 17.822 0.783404 17.8855 1.84739C17.9422 2.79217 17.9473 3.74585 17.8838 4.69063C17.8066 5.85782 17.1098 6.48589 15.9582 6.51792C15.2735 6.53927 14.587 6.52325 13.9005 6.52325Z" fill="#4B5A78"/>
</svg>
