<svg width="14" height="14" viewBox="0 0 14 14" fill="none" xmlns="http://www.w3.org/2000/svg">
<mask id="mask0_312_2731" style="mask-type:luminance" maskUnits="userSpaceOnUse" x="0" y="0" width="14" height="14">
<path d="M12 1H2C1.73478 1 1.48043 1.10536 1.29289 1.29289C1.10536 1.48043 1 1.73478 1 2V12C1 12.2652 1.10536 12.5196 1.29289 12.7071C1.48043 12.8946 1.73478 13 2 13H12C12.2652 13 12.5196 12.8946 12.7071 12.7071C12.8946 12.5196 13 12.2652 13 12V2C13 1.73478 12.8946 1.48043 12.7071 1.29289C12.5196 1.10536 12.2652 1 12 1Z" fill="white" stroke="white" stroke-width="1.33333" stroke-linecap="round" stroke-linejoin="round"/>
<path d="M5.99984 9.33333L7.6665 10.6667L10.3332 7.33333M3.6665 4H10.3332M3.6665 6.66667H6.33317" stroke="black" stroke-width="1.33333" stroke-linecap="round" stroke-linejoin="round"/>
</mask>
<g mask="url(#mask0_312_2731)">
<path d="M-1 -1H15V15H-1V-1Z" fill="#0084FF"/>
</g>
</svg>
