<svg width="13" height="14" viewBox="0 0 13 14" fill="none" xmlns="http://www.w3.org/2000/svg">
<path fill-rule="evenodd" clip-rule="evenodd" d="M12.925 9.69155C12.925 12.6643 10.2323 13.9999 6.46251 13.9999C2.69271 13.9999 0 12.6643 0 9.71309C0 6.48183 1.61563 4.84455 4.84688 3.20738L3.70261 1.07721C3.63436 0.970455 3.59636 0.847178 3.59266 0.720523C3.58897 0.593868 3.61971 0.468585 3.68162 0.358032C3.74353 0.247478 3.83429 0.155798 3.94421 0.0927673C4.05413 0.0297367 4.17909 -0.00228148 4.30578 0.000126464H8.87261C8.99138 0.00314575 9.10743 0.0363393 9.20983 0.0965824C9.31223 0.156825 9.39761 0.242136 9.45794 0.344483C9.51827 0.446831 9.55156 0.562847 9.55469 0.681612C9.55781 0.800377 9.53065 0.917982 9.47578 1.02336L8.07814 3.20738C11.3094 4.82301 12.925 6.46029 12.925 9.69155ZM7.08749 4.88733C7.08749 4.54215 6.80767 4.26233 6.46249 4.26233C6.11732 4.26233 5.83749 4.54215 5.83749 4.88733V5.51388C4.91048 5.55273 4.17087 6.31655 4.17087 7.25311C4.17087 8.07118 4.74049 8.77887 5.53965 8.95368L7.01275 9.27592C7.29945 9.33864 7.50418 9.59292 7.50418 9.88685C7.50418 10.2323 7.22406 10.5123 6.87919 10.5123H6.04586C5.77471 10.5123 5.54237 10.3393 5.45627 10.0957C5.34124 9.77024 4.98416 9.59966 4.65872 9.71469C4.33327 9.82972 4.16269 10.1868 4.27772 10.5122C4.51266 11.177 5.11218 11.6707 5.83749 11.7509V12.3873C5.83749 12.7325 6.11732 13.0123 6.46249 13.0123C6.80767 13.0123 7.08749 12.7325 7.08749 12.3873V11.7509C8.02522 11.6472 8.75418 10.8517 8.75418 9.88685C8.75418 9.00594 8.14086 8.24314 7.27987 8.0548L5.80677 7.73256C5.58146 7.68327 5.42087 7.48375 5.42087 7.25311C5.42087 6.98206 5.6406 6.76233 5.91165 6.76233H6.87919C7.06423 6.76233 7.22985 6.84195 7.34518 6.97081C7.39937 7.03136 7.44157 7.10197 7.46878 7.17894C7.58381 7.50438 7.94088 7.67496 8.26633 7.55993C8.59178 7.4449 8.76236 7.08783 8.64733 6.76238C8.56478 6.52883 8.43763 6.31708 8.2766 6.13717C7.97758 5.80308 7.5587 5.576 7.08749 5.5238V4.88733Z" fill="#FFAE02"/>
</svg>
