<svg width="17" height="17" viewBox="0 0 17 17" fill="none" xmlns="http://www.w3.org/2000/svg">
<path d="M7.75 2.59106H2.5C2.10218 2.59106 1.72064 2.7491 1.43934 3.0304C1.15804 3.31171 1 3.69324 1 4.09106V14.5911C1 14.9889 1.15804 15.3704 1.43934 15.6517C1.72064 15.933 2.10218 16.0911 2.5 16.0911H13C13.3978 16.0911 13.7794 15.933 14.0607 15.6517C14.342 15.3704 14.5 14.9889 14.5 14.5911V9.34106" stroke="#596680" stroke-width="1.3" stroke-linecap="round" stroke-linejoin="round"/>
<path d="M13.375 1.46599C13.6734 1.16762 14.078 1 14.5 1C14.922 1 15.3266 1.16762 15.625 1.46599C15.9234 1.76436 16.091 2.16903 16.091 2.59099C16.091 3.01295 15.9234 3.41762 15.625 3.71599L8.5 10.841L5.5 11.591L6.25 8.59099L13.375 1.46599Z" stroke="#596680" stroke-width="1.3" stroke-linecap="round" stroke-linejoin="round"/>
</svg>
