<svg width="12" height="12" viewBox="0 0 12 12" fill="none" xmlns="http://www.w3.org/2000/svg">
<path fill-rule="evenodd" clip-rule="evenodd" d="M0.512563 0.512563C0 1.02513 0 1.85009 0 3.5V8.16667C0 9.81658 0 10.6415 0.512563 11.1541C1.02513 11.6667 1.85009 11.6667 3.5 11.6667H8.16667C9.81658 11.6667 10.6415 11.6667 11.1541 11.1541C11.6667 10.6415 11.6667 9.81658 11.6667 8.16666V3.5C11.6667 1.85008 11.6667 1.02513 11.1541 0.512563C10.6415 0 9.81658 0 8.16666 0H3.5C1.85008 0 1.02513 0 0.512563 0.512563ZM9.2354 4.40689C9.41411 4.13883 9.34167 3.77666 9.07362 3.59795C8.80556 3.41924 8.44338 3.49168 8.26468 3.75974L6.48892 6.42337L6.22132 5.88817C5.82071 5.08695 4.704 5.01743 4.2071 5.76277L2.43135 8.4264C2.25264 8.69446 2.32507 9.05664 2.59313 9.23534C2.86119 9.41405 3.22337 9.34161 3.40207 9.07355L5.17782 6.40992L5.44542 6.94512C5.84604 7.74634 6.96275 7.81587 7.45965 7.07052L9.2354 4.40689Z" fill="#7F56D9"/>
</svg>
