<svg width="14" height="14" viewBox="0 0 14 14" fill="none" xmlns="http://www.w3.org/2000/svg">
<path fill-rule="evenodd" clip-rule="evenodd" d="M9.74716 0.220571C9.9617 0.00532461 10.2849 -0.0591832 10.5656 0.0572207L12.6934 0.93949C13.0745 1.09752 13.2564 1.5337 13.1005 1.91569L12.2324 4.04288C12.1177 4.32393 11.8448 4.50812 11.5413 4.50947C11.2377 4.51083 10.9633 4.32907 10.8461 4.04905L10.5026 3.22836L1.86483 6.92021C1.48395 7.083 1.04321 6.90621 0.880419 6.52532C0.717627 6.14444 0.894424 5.70371 1.27531 5.54091L9.92346 1.84462L9.58652 1.03959C9.46919 0.759251 9.53263 0.435818 9.74716 0.220571ZM12.5 5.47953C12.7652 5.47953 13.0196 5.58488 13.2071 5.77242C13.3946 5.95996 13.5 6.21431 13.5 6.47953V13.4795C13.5 13.7557 13.2761 13.9795 13 13.9795H10.5C10.2239 13.9795 10 13.7557 10 13.4795V6.47953C10 6.21431 10.1054 5.95996 10.2929 5.77242C10.4804 5.58488 10.7348 5.47953 11 5.47953H12.5ZM8.20711 7.27242C8.01957 7.08488 7.76522 6.97953 7.5 6.97953H6C5.73478 6.97953 5.48043 7.08488 5.29289 7.27242C5.10536 7.45996 5 7.71431 5 7.97953V13.4795C5 13.7557 5.22386 13.9795 5.5 13.9795H8C8.27614 13.9795 8.5 13.7557 8.5 13.4795V7.97953C8.5 7.71431 8.39464 7.45996 8.20711 7.27242ZM2.5 8.47953C2.76522 8.47953 3.01957 8.58488 3.20711 8.77242C3.39464 8.95996 3.5 9.21431 3.5 9.47953V13.4795C3.5 13.7557 3.27614 13.9795 3 13.9795H0.5C0.223858 13.9795 0 13.7557 0 13.4795V9.47953C0 9.21431 0.105356 8.95996 0.292893 8.77242C0.48043 8.58488 0.734785 8.47953 1 8.47953H2.5Z" fill="#24BB16"/>
</svg>
