<svg width="19" height="20" viewBox="0 0 19 20" fill="none" xmlns="http://www.w3.org/2000/svg">
<path d="M0 3.66667C0 1.93818 0 1.07394 0.536971 0.536971C1.07394 0 1.93818 0 3.66667 0H14.8542C16.5826 0 17.4469 0 17.9839 0.536971C18.5208 1.07394 18.5208 1.93818 18.5208 3.66667V12.83C18.5208 15.4227 18.5208 16.7191 17.7154 17.5245C16.9099 18.33 15.6135 18.33 13.0208 18.33H5.5C2.90728 18.33 1.61091 18.33 0.805456 17.5245C0 16.7191 0 15.4227 0 12.83V3.66667Z" fill="#364155"/>
<path d="M14.2927 15.5805C14.2927 15.0742 13.8823 14.6638 13.376 14.6638C12.8697 14.6638 12.4593 15.0742 12.4593 15.5805H14.2927ZM12.4593 18.33C12.4593 18.8362 12.8697 19.2466 13.376 19.2466C13.8823 19.2466 14.2927 18.8362 14.2927 18.33H12.4593ZM4.22786 18.33C4.22786 18.8362 4.63827 19.2466 5.14453 19.2466C5.65079 19.2466 6.0612 18.8362 6.0612 18.33H4.22786ZM6.0612 15.5805C6.0612 15.0742 5.65079 14.6638 5.14453 14.6638C4.63827 14.6638 4.22786 15.0742 4.22786 15.5805H6.0612ZM5.14453 5.4988C4.63827 5.4988 4.22786 5.90921 4.22786 6.41547C4.22786 6.92173 4.63827 7.33213 5.14453 7.33213V5.4988ZM13.376 7.33213C13.8823 7.33213 14.2927 6.92173 14.2927 6.41547C14.2927 5.90921 13.8823 5.4988 13.376 5.4988V7.33213ZM5.14453 9.1648C4.63827 9.1648 4.22786 9.57521 4.22786 10.0815C4.22786 10.5877 4.63827 10.9981 5.14453 10.9981L5.14453 9.1648ZM13.376 10.9981C13.8823 10.9981 14.2927 10.5877 14.2927 10.0815C14.2927 9.57521 13.8823 9.1648 13.376 9.1648V10.9981ZM12.4593 15.5805L12.4593 18.33H14.2927L14.2927 15.5805H12.4593ZM6.0612 18.33V15.5805H4.22786V18.33H6.0612ZM5.14453 7.33213H13.376V5.4988H5.14453V7.33213ZM5.14453 10.9981L13.376 10.9981V9.1648L5.14453 9.1648L5.14453 10.9981Z" fill="#4B5A78"/>
</svg>
