<svg width="17" height="17" viewBox="0 0 17 17" fill="none" xmlns="http://www.w3.org/2000/svg">
<path fill-rule="evenodd" clip-rule="evenodd" d="M1.78571 0C0.85048 0 0 0.640999 0 1.53571V4.03571C0 4.93043 0.85048 5.57143 1.78571 5.57143H4.78571C5.72095 5.57143 6.57143 4.93043 6.57143 4.03571V1.53571C6.57143 0.640999 5.72095 0 4.78571 0H1.78571ZM11.7858 4.99999C11.323 4.99999 10.8911 5.12452 10.5666 5.34087C10.2441 5.55589 10.0001 5.88431 10.0001 6.28571V8.28571C10.0001 8.6871 10.2441 9.01552 10.5666 9.23054C10.8911 9.44689 11.323 9.57142 11.7858 9.57142H14.7858C15.2485 9.57142 15.6804 9.44689 16.0049 9.23054C16.3274 9.01552 16.5715 8.6871 16.5715 8.28571V6.28571C16.5715 5.88431 16.3274 5.55589 16.0049 5.34087C15.6804 5.12452 15.2485 4.99999 14.7858 4.99999H11.7858ZM10.5715 6.28571C10.5715 6.13482 10.6632 5.96324 10.8836 5.81633C11.102 5.67075 11.4201 5.57142 11.7858 5.57142H14.7858C15.1514 5.57142 15.4696 5.67075 15.6879 5.81633C15.9083 5.96324 16.0001 6.13482 16.0001 6.28571V8.28571C16.0001 8.4366 15.9083 8.60817 15.6879 8.75508C15.4696 8.90066 15.1514 8.99999 14.7858 8.99999H11.7858C11.4201 8.99999 11.102 8.90066 10.8836 8.75508C10.6632 8.60817 10.5715 8.4366 10.5715 8.28571V6.28571ZM0 12.5357C0 11.641 0.85048 11 1.78571 11H4.78571C5.72095 11 6.57143 11.641 6.57143 12.5357V15.0357C6.57143 15.9304 5.72095 16.5714 4.78571 16.5714H1.78571C0.85048 16.5714 0 15.9304 0 15.0357V12.5357ZM1.78571 11.5714C1.06409 11.5714 0.571429 12.0497 0.571429 12.5357V15.0357C0.571429 15.5217 1.06409 16 1.78571 16H4.78571C5.50733 16 6 15.5217 6 15.0357V12.5357C6 12.0497 5.50733 11.5714 4.78571 11.5714H1.78571Z" fill="#364155"/>
<path d="M3.91064 12.6607V5.91071" stroke="#4B5A78" stroke-width="1.71429" stroke-linecap="round" stroke-linejoin="round"/>
<path d="M11.7856 8.16071H8.63564C7.3825 8.16071 6.18067 8.51629 5.29457 9.14922C4.40846 9.78216 3.91064 10.6406 3.91064 11.5357" stroke="#4B5A78" stroke-width="1.71429" stroke-linecap="round" stroke-linejoin="round"/>
<path d="M4.78564 11.2857H1.78564C0.957217 11.2857 0.285645 11.8453 0.285645 12.5357V15.0357C0.285645 15.7261 0.957217 16.2857 1.78564 16.2857H4.78564C5.61407 16.2857 6.28564 15.7261 6.28564 15.0357V12.5357C6.28564 11.8453 5.61407 11.2857 4.78564 11.2857Z" fill="#364155"/>
<path d="M14.7856 5.28571H11.7856C10.9572 5.28571 10.2856 5.73342 10.2856 6.28571V8.28571C10.2856 8.83799 10.9572 9.28571 11.7856 9.28571H14.7856C15.6141 9.28571 16.2856 8.83799 16.2856 8.28571V6.28571C16.2856 5.73342 15.6141 5.28571 14.7856 5.28571Z" fill="#364155"/>
</svg>
