<svg width="13" height="13" viewBox="0 0 13 13" fill="none" xmlns="http://www.w3.org/2000/svg">
<path d="M2.6123 6.36731C2.6123 6.21812 2.67157 6.07505 2.77706 5.96956C2.88255 5.86407 3.02562 5.80481 3.1748 5.80481H5.79455V3.18506C5.79455 3.03587 5.85382 2.8928 5.95931 2.78731C6.0648 2.68182 6.20787 2.62256 6.35705 2.62256C6.50624 2.62256 6.64931 2.68182 6.7548 2.78731C6.86029 2.8928 6.91955 3.03587 6.91955 3.18506V5.80481H9.5393C9.68849 5.80481 9.83156 5.86407 9.93705 5.96956C10.0425 6.07505 10.1018 6.21812 10.1018 6.36731C10.1018 6.51649 10.0425 6.65957 9.93705 6.76506C9.83156 6.87054 9.68849 6.92981 9.5393 6.92981H6.91955V9.54956C6.91955 9.69874 6.86029 9.84182 6.7548 9.94731C6.64931 10.0528 6.50624 10.1121 6.35705 10.1121C6.20787 10.1121 6.0648 10.0528 5.95931 9.94731C5.85382 9.84182 5.79455 9.69874 5.79455 9.54956V6.92981H3.1748C3.02562 6.92981 2.88255 6.87054 2.77706 6.76506C2.67157 6.65957 2.6123 6.51649 2.6123 6.36731Z" fill="#596680"/>
<path fill-rule="evenodd" clip-rule="evenodd" d="M2.84469 0.194086C5.17904 -0.0646954 7.53484 -0.0646954 9.86919 0.194086C11.2394 0.347086 12.3457 1.42634 12.5062 2.80409C12.7837 5.17184 12.7837 7.56359 12.5062 9.93134C12.3449 11.3091 11.2387 12.3876 9.86919 12.5413C7.53484 12.8001 5.17904 12.8001 2.84469 12.5413C1.47444 12.3876 0.368187 11.3091 0.207687 9.93134C-0.0692291 7.56366 -0.0692291 5.17177 0.207687 2.80409C0.368187 1.42634 1.47519 0.347086 2.84469 0.194086ZM9.74469 1.31159C7.49308 1.06201 5.22079 1.06201 2.96919 1.31159C2.55237 1.35783 2.16331 1.54324 1.86487 1.83787C1.56643 2.1325 1.37603 2.51915 1.32444 2.93534C1.0577 5.21606 1.0577 7.52011 1.32444 9.80084C1.37619 10.2169 1.56665 10.6034 1.86508 10.8978C2.16351 11.1923 2.55248 11.3776 2.96919 11.4238C5.20194 11.6728 7.51194 11.6728 9.74469 11.4238C10.1613 11.3775 10.5501 11.1921 10.8483 10.8976C11.1466 10.6032 11.337 10.2168 11.3887 9.80084C11.6554 7.52011 11.6554 5.21606 11.3887 2.93534C11.3368 2.51953 11.1464 2.13332 10.8481 1.839C10.5499 1.54468 10.1611 1.35942 9.74469 1.31309V1.31159Z" fill="#596680"/>
</svg>
