<svg width="21" height="19" viewBox="0 0 21 19" fill="none" xmlns="http://www.w3.org/2000/svg">
<path d="M0.00529561 0.533611C1.16856 -0.651416 3.62749 0.236885 3.83402 2.21631C3.90639 2.91681 4.19589 2.98818 4.73957 2.98442C9.12257 2.96752 13.5073 2.97315 17.8903 2.97503C19.6573 2.97503 20.2963 3.75441 20.1463 5.64181C19.945 8.1884 19.7667 10.7387 19.599 13.2872C19.5214 14.476 18.7835 15.9878 17.5108 16.3221C16.9865 15.122 16.3087 14.6056 15.4261 14.7314C14.487 14.8666 14.0051 15.4319 13.758 16.6902C12.2417 16.6921 10.7254 16.6939 9.21083 16.6958C8.98488 15.0901 7.7969 14.3107 6.54361 14.9136C5.9505 15.199 5.75633 15.7887 5.4633 16.3127C4.64072 16.17 4.19765 15.5709 3.87991 14.8216C4.08115 14.8009 4.28238 14.7821 4.48185 14.7596C5.07143 14.6976 5.48272 14.414 5.48801 13.7285C5.49154 13.0168 5.05024 12.7745 4.46243 12.7445C4.08644 12.7257 3.70869 12.7388 3.33094 12.737C3.24268 12.7388 3.15442 12.7351 3.06792 12.7445C2.41833 12.8158 1.88524 12.5454 1.85876 11.8505C1.83052 11.0993 2.34595 10.7763 3.0485 10.8533C3.77753 10.8477 4.50833 10.8345 5.23736 10.8364C5.90637 10.8383 6.45181 10.5772 6.43946 9.80913C6.4271 9.04478 5.86753 8.80627 5.20382 8.81003C4.41654 8.81378 3.62749 8.80064 2.83845 8.795C2.54895 8.79876 2.25769 8.80251 1.9682 8.80251C1.35215 8.80439 0.917905 8.47762 0.926731 7.83346C0.933792 7.24376 1.35391 6.92262 1.92937 6.91323C2.13236 6.90947 2.33536 6.9076 2.53836 6.90384C3.7387 6.90572 4.9408 6.89821 6.14114 6.91135C6.81368 6.91886 7.36442 6.67848 7.35207 5.90098C7.33971 5.14038 6.78544 4.87934 6.11996 4.88122C4.8596 4.88685 3.60101 4.89249 2.34066 4.89624C2.27182 4.46805 2.15178 4.03987 2.14472 3.61168C2.12707 2.6445 2.01233 1.84259 0.799637 1.99659C0.455422 2.03978 0.294789 1.6022 0 1.46698C0.00529561 1.15899 0.00529561 0.845362 0.00529561 0.533611Z" fill="#364155"/>
<path d="M13.7583 16.6922C14.0054 15.4339 14.4873 14.8668 15.4264 14.7334C16.3108 14.6076 16.9886 15.124 17.5111 16.3241C17.3805 17.7195 16.8739 18.4463 15.9366 18.5833C14.8033 18.7505 14.0919 18.1326 13.7583 16.6922Z" fill="#4B5A78"/>
<path d="M5.46338 16.3145C5.7564 15.7905 5.95057 15.2008 6.54368 14.9153C7.79698 14.3125 8.98319 15.0919 9.2109 16.6976C8.9726 18.0009 8.34948 18.6244 7.30978 18.6019C6.22595 18.5794 5.64873 17.8638 5.46338 16.3145Z" fill="#4B5A78"/>
<path d="M2.3457 4.90172C3.60606 4.89609 4.86465 4.89233 6.125 4.8867C6.79048 4.88294 7.34475 5.14586 7.35711 5.90646C7.36947 6.68396 6.81872 6.92435 6.14618 6.91683C4.94585 6.90369 3.74374 6.90932 2.54341 6.90932C2.47633 6.23887 2.41102 5.5703 2.3457 4.90172Z" fill="#4B5A78"/>
<path d="M2.8418 8.79694C3.63084 8.80257 4.41812 8.81572 5.20717 8.81196C5.86912 8.8082 6.42869 9.04483 6.44281 9.81106C6.45517 10.5792 5.90972 10.8402 5.24071 10.8383C4.51168 10.8365 3.78089 10.8496 3.05186 10.8552C2.98125 10.1698 2.91064 9.48429 2.8418 8.79694Z" fill="#4B5A78"/>
<path d="M3.33301 12.7388C3.71076 12.7407 4.08675 12.7276 4.4645 12.7463C5.05231 12.7745 5.49361 13.0186 5.49008 13.7304C5.48655 14.4159 5.07526 14.6995 4.48392 14.7614C4.28269 14.7821 4.08145 14.8028 3.88199 14.8234C3.32418 14.2394 3.38949 13.4694 3.33301 12.7388Z" fill="#4B5A78"/>
</svg>
