<svg width="11" height="14" viewBox="0 0 11 14" fill="none" xmlns="http://www.w3.org/2000/svg">
<path fill-rule="evenodd" clip-rule="evenodd" d="M8.66667 0C9.1971 0 9.70581 0.210714 10.0809 0.585786C10.456 0.960859 10.6667 1.46957 10.6667 2V12.6667C10.6666 12.7922 10.6311 12.9152 10.5641 13.0215C10.4972 13.1277 10.4017 13.2129 10.2885 13.2673C10.1753 13.3216 10.049 13.3429 9.92429 13.3286C9.79954 13.3143 9.68135 13.2651 9.58333 13.1867L8.33333 12.1867L7.08333 13.1867C6.95527 13.2893 6.79387 13.341 6.63003 13.332C6.46619 13.3231 6.31142 13.254 6.19533 13.138L5.33333 12.276L4.47133 13.138C4.35534 13.2541 4.20061 13.3233 4.03676 13.3324C3.87292 13.3415 3.71147 13.2898 3.58333 13.1873L2.33333 12.1867L1.08333 13.1867C0.985315 13.2651 0.867126 13.3143 0.742373 13.3286C0.617621 13.3429 0.491378 13.3216 0.378179 13.2673C0.26498 13.2129 0.169427 13.1277 0.102522 13.0215C0.0356161 12.9152 7.84267e-05 12.7922 0 12.6667V2C0 1.46957 0.210714 0.960859 0.585787 0.585786C0.960859 0.210714 1.46957 0 2 0H8.66667ZM5.33333 6.66667H3.33333C3.15652 6.66667 2.98695 6.7369 2.86193 6.86193C2.7369 6.98695 2.66667 7.15652 2.66667 7.33333C2.66667 7.51014 2.7369 7.67971 2.86193 7.80474C2.98695 7.92976 3.15652 8 3.33333 8H5.33333C5.51014 8 5.67971 7.92976 5.80474 7.80474C5.92976 7.67971 6 7.51014 6 7.33333C6 7.15652 5.92976 6.98695 5.80474 6.86193C5.67971 6.7369 5.51014 6.66667 5.33333 6.66667ZM7.33333 4H3.33333C3.16341 4.00019 2.99998 4.06525 2.87642 4.1819C2.75286 4.29854 2.67851 4.45797 2.66855 4.6276C2.65859 4.79722 2.71378 4.96425 2.82284 5.09455C2.9319 5.22486 3.0866 5.3086 3.25533 5.32867L3.33333 5.33333H7.33333C7.50325 5.33314 7.66669 5.26808 7.79025 5.15143C7.9138 5.03479 7.98816 4.87536 7.99812 4.70574C8.00807 4.53611 7.95288 4.36908 7.84382 4.23878C7.73476 4.10848 7.58006 4.02474 7.41133 4.00467L7.33333 4Z" fill="#24BB16"/>
</svg>
