<svg width="19" height="19" viewBox="0 0 19 19" fill="none" xmlns="http://www.w3.org/2000/svg">
<path d="M8.62823 18.9461C4.37682 19.1041 0.593176 15.7635 0.0776027 11.5894C-0.521128 6.73339 2.39561 2.7692 7.06695 1.84623C8.17294 1.62796 9.24983 1.63004 10.3517 1.85662C10.94 1.97719 11.0876 2.17675 10.9026 2.76504C10.3641 4.47586 9.89429 6.20955 9.36625 7.92452C9.1937 8.48163 9.06064 9.01795 9.52217 9.4732C9.98161 9.92637 10.5201 9.79125 11.0751 9.61663C12.7216 9.09694 14.3869 8.63754 16.0271 8.09914C16.7111 7.87463 16.9626 7.95155 17.1394 8.73524C18.2952 13.8594 13.8318 19.2704 8.62823 18.9461Z" fill="#364155"/>
<path d="M12.5571 7.64807C11.7442 7.67717 11.1871 7.03692 11.4033 6.26362C11.9501 4.30127 12.5675 2.35763 13.1309 0.401513C13.2515 -0.0183965 13.4718 -0.0682869 13.819 0.0668326C16.2742 1.02722 17.9769 2.74012 18.9311 5.19513C19.0205 5.42588 19.0766 5.69404 18.7502 5.79382C16.6671 6.4216 14.582 7.04107 12.5571 7.64807Z" fill="#4B5A78"/>
</svg>
