<svg width="18" height="18" viewBox="0 0 18 18" fill="none" xmlns="http://www.w3.org/2000/svg">
<path d="M1.92857 0C0.863451 0 0 0.863451 0 1.92857V9.64286C0 10.708 0.863451 11.5714 1.92857 11.5714H16.0714C17.1365 11.5714 18 10.708 18 9.64286V1.92857C18 0.863451 17.1365 0 16.0714 0H1.92857Z" fill="#364155"/>
<path d="M3.53557 4.82141C4.06814 4.82141 4.49986 5.25314 4.49986 5.7857C4.49986 6.31826 4.06814 6.74998 3.53557 6.74998C3.00301 6.74998 2.57129 6.31826 2.57129 5.7857C2.57129 5.25314 3.00301 4.82141 3.53557 4.82141Z" fill="#4B5A78"/>
<path d="M14.4643 4.82141C14.9968 4.82141 15.4286 5.25314 15.4286 5.7857C15.4286 6.31826 14.9968 6.74998 14.4643 6.74998C13.9317 6.74998 13.5 6.31826 13.5 5.7857C13.5 5.25314 13.9317 4.82141 14.4643 4.82141Z" fill="#4B5A78"/>
<path d="M10.666 4.04517C10.6087 3.88303 10.5202 3.7356 10.4078 3.61005C10.1688 3.34299 9.82148 3.17493 9.43488 3.17493H8.42448C7.78096 3.17493 7.25928 3.69661 7.25928 4.34013C7.25928 4.88771 7.64056 5.36141 8.17548 5.47842L9.71383 5.81494C10.3131 5.94603 10.7402 6.47709 10.7402 7.09053C10.7402 7.81146 10.1558 8.39636 9.43488 8.39636H8.56464C7.99628 8.39636 7.51275 8.03312 7.33355 7.52612" stroke="#4B5A78" stroke-width="1.60714" stroke-linecap="round" stroke-linejoin="round"/>
<path d="M9 3.17499V1.86963" stroke="#4B5A78" stroke-width="1.60714" stroke-linecap="round" stroke-linejoin="round"/>
<path d="M9 9.70172V8.39636" stroke="#4B5A78" stroke-width="1.60714" stroke-linecap="round" stroke-linejoin="round"/>
<path d="M9 14.4642V17.0357" stroke="#364155" stroke-width="1.60714" stroke-linecap="round" stroke-linejoin="round"/>
<path d="M12.2144 13.5V16.0714" stroke="#364155" stroke-width="1.60714" stroke-linecap="round" stroke-linejoin="round"/>
<path d="M5.78564 13.5V16.0714" stroke="#4B5A78" stroke-width="1.60714" stroke-linecap="round" stroke-linejoin="round"/>
</svg>
