<svg width="16" height="16" viewBox="0 0 16 16" fill="none" xmlns="http://www.w3.org/2000/svg">
<path d="M6.51092 0.526983C8.85568 0.565343 10.673 1.57549 11.8062 3.63095C12.9378 5.68162 12.8643 7.77225 11.6096 9.76218C11.3091 10.2401 11.3219 10.4862 11.7311 10.8714C12.8739 11.9487 13.964 13.0803 15.078 14.1864C15.4025 14.5076 15.687 14.8769 15.2922 15.2812C14.8958 15.6856 14.5266 15.4155 14.2005 15.0862C13.1137 13.9898 11.9932 12.9253 10.9431 11.7937C10.518 11.3349 10.2414 11.311 9.7076 11.6434C6.74428 13.4943 2.89868 12.4682 1.2444 9.42972C-0.393898 6.42005 0.803257 2.65437 3.88805 1.12636C4.71119 0.718783 5.58069 0.504606 6.51092 0.526983Z" fill="#596680"/>
<path d="M6.50432 11.303C3.86226 11.2886 1.73328 9.1468 1.75406 6.52233C1.77324 3.89306 3.91501 1.76088 6.54108 1.75289C9.20071 1.7449 11.3361 3.91384 11.3089 6.59745C11.2833 9.25069 9.17194 11.3173 6.50432 11.303Z" fill="#F5F7FA"/>
</svg>
