<svg width="15" height="15" viewBox="0 0 15 15" fill="none" xmlns="http://www.w3.org/2000/svg">
<path d="M6.00115 0.00159213C8.34592 0.0399522 10.1632 1.0501 11.2964 3.10556C12.4281 5.15623 12.3545 7.24686 11.0999 9.23679C10.7994 9.71469 10.8122 9.96083 11.2213 10.346C12.3641 11.4233 13.4542 12.5549 14.5682 13.661C14.8927 13.9823 15.1772 14.3515 14.7824 14.7558C14.386 15.1602 14.0168 14.8901 13.6908 14.5609C12.6039 13.4644 11.4835 12.3999 10.4333 11.2683C10.0082 10.8096 9.73168 10.7856 9.19783 11.118C6.23451 12.9689 2.38891 11.9428 0.734632 8.90433C-0.903664 5.89466 0.293491 2.12898 3.37828 0.600969C4.20143 0.193393 5.07092 -0.0207846 6.00115 0.00159213Z" fill="white"/>
<path d="M5.99357 10.7776C3.35152 10.7632 1.22254 8.62147 1.24331 5.997C1.26249 3.36774 3.40427 1.23555 6.03033 1.22756C8.68997 1.21957 10.8253 3.38851 10.7982 6.07212C10.7726 8.72536 8.6612 10.792 5.99357 10.7776Z" fill="#2E384C"/>
</svg>
