<svg width="20" height="19" viewBox="0 0 20 19" fill="none" xmlns="http://www.w3.org/2000/svg">
<path d="M12.9165 9.16669C12.9165 10.6855 11.6853 11.9167 10.1665 11.9167C8.64772 11.9167 7.4165 10.6855 7.4165 9.16669C7.4165 7.6479 8.64772 6.41669 10.1665 6.41669C11.6853 6.41669 12.9165 7.6479 12.9165 9.16669Z" fill="#7E869E" fill-opacity="0.25"/>
<path d="M2.08168 11.1111C1.55298 10.1607 1.28862 9.68549 1.28862 9.16665C1.28862 8.64781 1.55298 8.17258 2.08169 7.22214L3.22836 5.16081L4.44019 3.1371C4.99894 2.204 5.27831 1.73745 5.72764 1.47803C6.17697 1.21861 6.7207 1.20994 7.80816 1.1926L10.1667 1.15498L12.5252 1.1926C13.6126 1.20994 14.1564 1.21861 14.6057 1.47803C15.055 1.73745 15.3344 2.204 15.8931 3.1371L17.105 5.16081L18.2516 7.22214C18.7804 8.17258 19.0447 8.6478 19.0447 9.16665C19.0447 9.68549 18.7804 10.1607 18.2516 11.1111L17.105 13.1725L15.8931 15.1962C15.3344 16.1293 15.055 16.5958 14.6057 16.8553C14.1564 17.1147 13.6126 17.1234 12.5252 17.1407L10.1667 17.1783L7.80816 17.1407C6.7207 17.1234 6.17697 17.1147 5.72764 16.8553C5.27831 16.5958 4.99894 16.1293 4.44019 15.1962L3.22836 13.1725L2.08168 11.1111Z" fill="#364155"/>
<path d="M2.08168 11.1111C1.55298 10.1607 1.28862 9.68549 1.28862 9.16665C1.28862 8.64781 1.55298 8.17258 2.08169 7.22214L3.22836 5.16081L4.44019 3.1371C4.99894 2.204 5.27831 1.73745 5.72764 1.47803C6.17697 1.21861 6.7207 1.20994 7.80816 1.1926L10.1667 1.15498L12.5252 1.1926C13.6126 1.20994 14.1564 1.21861 14.6057 1.47803C15.055 1.73745 15.3344 2.204 15.8931 3.1371L17.105 5.16081L18.2516 7.22214C18.7804 8.17258 19.0447 8.6478 19.0447 9.16665C19.0447 9.68549 18.7804 10.1607 18.2516 11.1111L17.105 13.1725L15.8931 15.1962C15.3344 16.1293 15.055 16.5958 14.6057 16.8553C14.1564 17.1147 13.6126 17.1234 12.5252 17.1407L10.1667 17.1783L7.80816 17.1407C6.7207 17.1234 6.17697 17.1147 5.72764 16.8553C5.27831 16.5958 4.99894 16.1293 4.44019 15.1962L3.22836 13.1725L2.08168 11.1111Z" stroke="#4B5A78" stroke-width="1.2"/>
<circle cx="10.1665" cy="9.16669" r="2.75" stroke="#4B5A78" stroke-width="1.2"/>
</svg>
