<svg width="12" height="12" viewBox="0 0 12 12" fill="none" xmlns="http://www.w3.org/2000/svg">
<path d="M11.3225 5.48917L6.17167 0.338333C5.95583 0.1225 5.65833 0 5.34917 0H1.16667C0.525 0 0 0.525 0 1.16667V5.34917C0 5.65833 0.1225 5.95583 0.344167 6.17167L5.495 11.3225C5.95 11.7775 6.69083 11.7775 7.14583 11.3225L11.3283 7.14C11.7833 6.685 11.7833 5.95 11.3225 5.48917ZM2.625 3.5C2.14083 3.5 1.75 3.10917 1.75 2.625C1.75 2.14083 2.14083 1.75 2.625 1.75C3.10917 1.75 3.5 2.14083 3.5 2.625C3.5 3.10917 3.10917 3.5 2.625 3.5Z" fill="#FFAE02"/>
</svg>
