<svg width="12" height="16" viewBox="0 0 12 16" fill="none" xmlns="http://www.w3.org/2000/svg">
<path d="M9.91667 6.72917H1.41667C1.04094 6.72917 0.680609 6.87842 0.414932 7.1441C0.149255 7.40978 0 7.77011 0 8.14583V13.8125C0 14.1882 0.149255 14.5486 0.414932 14.8142C0.680609 15.0799 1.04094 15.2292 1.41667 15.2292H9.91667C10.2924 15.2292 10.6527 15.0799 10.9184 14.8142C11.1841 14.5486 11.3333 14.1882 11.3333 13.8125V8.14583C11.3333 7.77011 11.1841 7.40978 10.9184 7.1441C10.6527 6.87842 10.2924 6.72917 9.91667 6.72917ZM9.91667 10.9792H1.41667V8.85417H9.91667M9.20833 2.47917V6.02083H8.14583V3.54167H4.165L5.87917 5.26292L5.12833 6.02083L2.125 3.01042L5.12833 0L5.87917 0.757917L4.165 2.47917H9.20833Z" fill="#FFAE02"/>
</svg>
